Coordinates
version=1
nRows=8
nColumns=36
inDegrees=yes

Units are S.I. units (second, meters, Newtons, ...)
If the header above contains a line with 'inDegrees', this indicates whether rotational values are in degrees (yes) or radians (no).

endheader
time	pelvis_tilt	pelvis_list	pelvis_rotation	pelvis_tx	pelvis_ty	pelvis_tz	hip_flexion_r	hip_adduction_r	hip_rotation_r	knee_angle_r	knee_angle_r_beta	ankle_angle_r	subtalar_angle_r	mtp_angle_r	hip_flexion_l	hip_adduction_l	hip_rotation_l	knee_angle_l	knee_angle_l_beta	ankle_angle_l	subtalar_angle_l	mtp_angle_l	lumbar_extension	lumbar_bending	lumbar_rotation	arm_flex_r	arm_add_r	arm_rot_r	elbow_flex_r	pro_sup_r	arm_flex_l	arm_add_l	arm_rot_l	elbow_flex_l	pro_sup_l
      0.71000000	     -2.26083161	      1.67147138	     -6.43073990	      0.65535770	      0.92679802	     -0.14346610	    -14.31205079	      1.29072509	      2.95423782	     25.34391710	      0.44233480	     -1.68124407	    -10.98898315	     -7.16639537	     25.87607519	      0.78630474	     -4.89493110	     18.93292170	      0.33044182	     -5.74838757	    -17.47649254	     -7.16639537	     -7.33802253	    -21.99467388	      1.58099002	      1.68409360	     -4.08540756	     17.21354509	     35.96461171	    112.11369379	      5.78934284	    -11.51941976	    -13.42871487	     27.22295582	    105.81622391
      0.72000000	     -2.28273803	      1.90462998	     -6.11840338	      0.66832612	      0.92873648	     -0.14460676	    -12.83416405	      0.94921449	      2.47392798	     28.70496765	      0.50099620	     -4.52516867	    -11.89928155	     -7.17322082	     25.29785123	      1.31513713	     -4.44979704	     19.50280590	      0.34038818	     -4.66517349	    -17.48418943	     -7.17322082	     -7.44902769	    -22.69711234	      1.20173753	      1.42352347	     -3.87823622	     17.71289062	     35.49823350	    112.15365959	      5.81266949	    -11.72726537	    -12.96470930	     27.16429178	    105.82191543
      0.73000000	     -2.14425791	      2.13379944	     -5.86531174	      0.68116136	      0.93082074	     -0.14587360	    -11.36480003	      0.48732303	      1.82553371	     32.21162779	      0.56219896	     -7.20692765	    -12.29770225	     -7.17704646	     24.41874604	      1.86373618	     -4.11211340	     19.80685486	      0.34569483	     -3.64753709	    -17.63408996	     -7.17704646	     -7.70212268	    -23.33697974	      0.84913571	      1.18370857	     -3.75215898	     18.08183551	     35.19721697	    112.18707950	      5.90729277	    -11.91681297	    -12.65303555	     27.13972603	    105.83496380
      0.74000000	     -2.11597184	      2.34390530	     -5.66261073	      0.69364868	      0.93267672	     -0.14722227	     -9.62766451	      0.03553680	      1.31240659	     35.80210052	      0.62486453	     -9.87707252	    -13.02045681	     -7.18125394	     23.60806809	      2.38292975	     -3.74008891	     19.98340973	      0.34877630	     -2.69337909	    -17.68053801	     -7.18125394	     -7.83471317	    -23.91283759	      0.50083877	      0.99788229	     -3.68131453	     18.57720084	     34.90221354	    112.23803384	      5.94598152	    -12.07557737	    -12.23769927	     27.09889604	    105.86289855
      0.75000000	     -2.05181889	      2.46852687	     -5.53811533	      0.70579079	      0.93450573	     -0.14863129	     -7.84119241	     -0.34763120	      0.94515417	     39.35088289	      0.68680247	    -12.17841323	    -13.82239227	     -7.18532203	     22.70385587	      2.78941820	     -3.49857848	     20.02998701	      0.34958922	     -1.81329501	    -17.70644951	     -7.18532203	     -8.04530668	    -24.31203385	      0.15310287	      0.88988864	     -3.69394136	     19.10682639	     34.67649671	    112.29254088	      6.00026320	    -12.18374603	    -11.79270857	     27.04518089	    105.89703014
      0.76000000	     -2.09364759	      2.41984352	     -5.49749831	      0.71750647	      0.93612853	     -0.14990491	     -5.90604637	     -0.46437459	      0.79719250	     42.69015753	      0.74508381	    -14.69277043	    -15.83635121	     -7.19979232	     21.93607769	      2.91637797	     -3.48884296	     20.10434082	      0.35088694	     -0.82415013	    -17.35202346	     -7.19979232	     -8.10705591	    -24.46295725	     -0.17869033	      0.98346622	     -3.85796141	     20.39934739	     34.26689535	    112.35939462	      6.04515238	    -12.35743634	    -10.68455775	     26.78739665	    105.91806704
      0.77000000	     -2.02471574	      2.53787132	     -5.49142506	      0.72914112	      0.93780650	     -0.15144369	     -4.03443874	     -0.91017494	      0.48757337	     45.93903794	      0.80178747	    -15.39726440	    -16.46429404	     -7.20423256	     20.89787362	      3.27071000	     -3.44263483	     19.83378098	      0.34616478	     -0.05480584	    -17.29384327	     -7.20423256	     -8.33239044	    -24.74949644	     -0.49144315	      0.89889103	     -3.94095166	     20.68558216	     34.24798699	    112.36430160	      6.11363702	    -12.39898763	    -10.37660142	     26.75462740	    105.91963107
      0.78000000	     -2.02300494	      2.61424000	     -5.55460303	      0.74043152	      0.93937933	     -0.15292695	     -2.07856505	     -1.26021740	      0.35995454	     48.92131623	      0.85383804	    -15.44570429	    -17.44097860	     -7.20798393	     19.93081814	      3.52802251	     -3.55578381	     19.52244090	      0.34073087	      0.66000970	    -17.13011301	     -7.20798393	     -8.48320558	    -24.94589938	     -0.79023955	      0.90168433	     -4.04545721	     20.97666073	     34.22937748	    112.37585317	      6.16943432	    -12.41446443	    -10.00495703	     26.69610910	    105.94025722
